HIERARCHY
ROOT Hips
{
  OFFSET 279.157 85.6768 304.565
  CHANNELS 6 Xposition Yposition Zposition Zrotation Xrotation Yrotation
  JOINT LeftUpLeg
  {
    OFFSET 8.64259 1.95398 -2.38835
    CHANNELS 3 Zrotation Xrotation Yrotation
    JOINT LeftLeg
    {
      OFFSET 43.7702 0 0
      CHANNELS 3 Zrotation Xrotation Yrotation
      JOINT LeftFoot
      {
        OFFSET 40.6238 0 0
        CHANNELS 3 Zrotation Xrotation Yrotation
        JOINT LeftToeBase
        {
          OFFSET 12.7242 0 0
          CHANNELS 3 Zrotation Xrotation Yrotation
          End Site
          {
            OFFSET 0 0 0
          }
        }
      }
    }
  }
  JOINT RightUpLeg
  {
    OFFSET -8.2249 1.95398 -2.59336
    CHANNELS 3 Zrotation Xrotation Yrotation
    JOINT RightLeg
    {
      OFFSET 43.5653 0 0
      CHANNELS 3 Zrotation Xrotation Yrotation
      JOINT RightFoot
      {
        OFFSET 40.6238 0 0
        CHANNELS 3 Zrotation Xrotation Yrotation
        JOINT RightToeBase
        {
          OFFSET 12.7242 0 0
          CHANNELS 3 Zrotation Xrotation Yrotation
          End Site
          {
            OFFSET 0 0 0
          }
        }
      }
    }
  }
  JOINT Spine
  {
    OFFSET 0.165834 0.87714 6.61349
    CHANNELS 3 Zrotation Xrotation Yrotation
    JOINT Spine1
    {
      OFFSET 7.38963 1.71661e-005 0
      CHANNELS 3 Zrotation Xrotation Yrotation
      JOINT Spine2
      {
        OFFSET 11.9445 1.14441e-005 0
        CHANNELS 3 Zrotation Xrotation Yrotation
        JOINT Spine3
        {
          OFFSET 14.7254 4.19617e-005 0
          CHANNELS 3 Zrotation Xrotation Yrotation
          JOINT Spine4
          {
            OFFSET 10.9679 0 0
            CHANNELS 3 Zrotation Xrotation Yrotation
            JOINT RightShoulder
            {
              OFFSET 2.46616 -1.6653 3.69651
              CHANNELS 3 Zrotation Xrotation Yrotation
              JOINT RightArm
              {
                OFFSET 13.0012 0 0
                CHANNELS 3 Zrotation Xrotation Yrotation
                JOINT RightForeArm
                {
                  OFFSET 28.7848 1.52588e-005 0
                  CHANNELS 3 Zrotation Xrotation Yrotation
                  JOINT RightHand
                  {
                    OFFSET 26.5688 1.52588e-005 0
                    CHANNELS 3 Zrotation Xrotation Yrotation
                    End Site
                    {
                      OFFSET 0 0 0
                    }
                  }
                }
              }
            }
            JOINT LeftShoulder
            {
              OFFSET 2.38034 -1.29275 -3.7523
              CHANNELS 3 Zrotation Xrotation Yrotation
              JOINT LeftArm
              {
                OFFSET 16.3182 6.10351e-005 0
                CHANNELS 3 Zrotation Xrotation Yrotation
                JOINT LeftForeArm
                {
                  OFFSET 27.0901 0 0
                  CHANNELS 3 Zrotation Xrotation Yrotation
                  JOINT LeftHand
                  {
                    OFFSET 24.5451 1.52588e-005 0
                    CHANNELS 3 Zrotation Xrotation Yrotation
                    End Site
                    {
                      OFFSET 0 0 0
                    }
                  }
                }
              }
            }
            JOINT Neck
            {
              OFFSET 5.0226 -0.0266342 0
              CHANNELS 3 Zrotation Xrotation Yrotation
              JOINT Head
              {
                OFFSET 6.69364 2.86102e-005 0
                CHANNELS 3 Zrotation Xrotation Yrotation
                End Site
                {
                  OFFSET 0 0 0
                }
              }
            }
          }
        }
      }
    }
  }
}
MOTION
Frames:	15
Frame Time:	0.0416667
-309.127 87.6526 -268.409 85.955 4.68778 94.8469 -171.489 3.54734 108.681 -45.3779 43.5178 9.55051 95.4071 26.364 -0.885424 33.4559 1.42141 5.86349 159.499 50.9691 85.1075 -98.8482 -17.2159 -0.375902 89.2619 -26.7452 -13.1967 16.1375 6.21526 -6.83551 -4.65971 4.9079 -89.6816 17.2143 -9.01135 2.2504 5.57215 -8.90353 2.6477 -17.2166 -9.26753 -0.585461 2.796 -9.26754 -0.585461 112.344 2.86665 -39.628 141.892 -52.8269 140.245 -28.9059 -45.7991 -39.1439 -3.80384 -3.66813 -62.1472 -54.3874 -52.2247 131.24 75.7368 58.3957 -102.16 -84.7829 23.8922 -109.27 -64.1764 -7.87484 8.60146 -3.4915 25.5837 9.66501 98.5392 22.0455 2.74452 
-305.15 91.4607 -265.304 84.7226 -2.66877 96.0636 -164.476 -6.60713 111.642 -20.6219 43.9403 4.05793 79.7409 17.6018 2.45207 40.6165 5.36598 8.30193 166.022 44.6527 92.8187 -94.0384 -10.3226 -0.0394917 88.6431 -23.2579 -13.4504 19.0394 4.90393 -6.5136 -3.98414 4.87087 -90.4044 17.2077 -8.05337 0.614455 5.56154 -8.01849 0.9706 -17.1687 -7.86327 -1.84984 2.84396 -7.86326 -1.84984 110.528 5.49058 -43.3077 121.716 -56.8089 125.75 -46.1556 -57.0852 -54.0264 -2.0964 -5.5575 -64.3903 -55.2543 -52.6846 129.854 70.5191 42.1514 -97.4921 27.3156 -36.7068 -107.072 2.31044 3.09369 -77.4092 -5.46647 26.6518 12.4579 94.1679 21.92 1.7095 
-301.241 92.3887 -261.918 83.6391 -13.6275 95.7847 -160.119 -14.748 111.48 -6.8731 36.6581 0.746565 67.7426 10.011 2.84783 48.6831 10.2082 9.6018 170.482 43.4682 99.7 -94.8436 -3.28288 -1.54145 87.1697 -17.9165 -10.9495 22.9884 2.62867 -3.12277 -2.99248 4.97523 -91.28 16.9138 -6.55318 -1.45111 5.25897 -6.61066 -1.16009 -17.3799 -5.81325 -3.35918 2.63273 -5.81324 -3.35919 108.896 8.37426 -46.6438 97.0822 -58.7244 106.344 -58.2838 -57.5025 -66.53 2.46848 -7.95404 -63.3579 -56.1784 -53.5694 128.249 61.8457 27.8138 -92.6346 43.9566 -39.0996 -99.0862 16.9024 -5.14813 -25.8101 -6.17952 25.5192 20.6394 86.4568 15.6001 -2.90736 
-296.783 92.7672 -258.495 81.2386 -25.3471 93.8256 -162.726 -17.2956 105.965 -8.67196 26.4083 0.701431 58.4668 3.64702 4.5043 55.2348 14.2154 10.5055 179.367 50.6686 99.8929 -92.2161 1.35875 -3.44822 83.6532 -12.8379 -6.90979 19.2539 2.16867 4.94178 -1.96359 4.99197 -92.1452 16.8153 -4.96848 -3.4799 5.1498 -5.11675 -3.25767 -17.395 -3.6941 -4.81151 2.61763 -3.69409 -4.81151 106.915 13.0383 -49.9669 79.285 -56.7822 91.4546 -72.2748 -56.4288 -79.9712 12.8985 -13.8179 -68.181 -57.8354 -51.9541 126.387 53.5281 19.4104 -90.8264 37.8261 -34.3051 -102.144 14.4012 -3.71806 -28.6418 -3.95333 22.4807 34.3221 69.5895 3.09776 -16.517 
-291.301 93.3225 -254.578 76.3027 -34.9544 90.0412 -168.865 -18.4101 98.0533 -8.86853 13.6736 1.98685 50.6224 -3.04839 1.97819 37.6402 4.1466 3.81095 -170.499 58.0922 95.9895 -83.705 -2.10603 -5.63599 81.9119 -12.0404 -5.85337 17.5449 2.52972 5.81534 -1.1555 4.72953 -92.7394 17.3148 -3.68893 -4.88439 5.64057 -3.90008 -4.71766 -16.8373 -2.05325 -5.76464 3.17539 -2.05326 -5.76464 104.942 18.3945 -54.1346 73.5163 -52.5688 86.4526 -45.3876 -42.6031 -61.0914 72.9374 -47.4532 -63.5143 -62.2996 -39.2633 123.623 40.4814 18.1408 -95.545 35.8711 -28.7283 -100.842 14.7719 -3.8799 -29.1266 3.48198 21.4502 44.5061 35.1944 -0.000314183 -36.4348 
-285.085 94.1421 -249.935 71.9267 -40.3055 88.7359 -172.088 -19.078 94.6801 -8.29967 7.64986 3.74439 48.1925 -5.64343 0.645924 14.4288 -7.99464 0.216121 -168.129 60.9858 96.8259 -72.2886 -7.81536 -6.63778 79.7176 -11.7364 -5.68234 17.8684 2.36686 6.10206 -0.788989 4.59665 -93.4233 17.5503 -3.3269 -6.33125 5.8689 -3.60182 -6.17944 -16.5503 -1.27568 -7.03483 3.46231 -1.27569 -7.03483 103.377 23.5011 -58.8633 74.6514 -47.3575 86.3097 75.1361 54.3364 -96.9699 127.278 60.327 27.4917 -70.1401 -18.6982 114.725 14.5815 21.6366 -97.6445 38.3924 -18.7021 -96.14 15.5214 -3.7746 -27.5025 16.5388 25.5256 47.3073 -4.70896 12.0699 -41.8311 
-278.69 94.5249 -245.18 70.3971 -42.1992 89.0888 -171.951 -21.3904 94.3245 -8.44196 3.12252 3.48465 50.2725 -3.57648 -0.419047 11.2953 -12.1237 5.50697 -170.325 60.2889 98.7192 -60.5365 -13.6189 -6.08318 78.0028 -10.9661 -4.96467 18.6898 1.87368 7.25122 -0.869754 4.66699 -93.9593 17.3592 -3.75684 -7.34261 5.67391 -4.07552 -7.17128 -16.704 -1.38477 -8.12686 3.3087 -1.38477 -8.12686 102.823 25.2559 -64.5309 77.5109 -40.8404 89.539 99.8803 51.6614 -117.459 101.844 68.8273 51.2846 -74.5114 -16.6629 104.871 7.82054 15.4087 -87.9481 37.0112 -13.6492 -93.8791 15.5731 -4.18976 -29.937 26.9876 28.821 44.5285 -28.9018 18.4281 -31.6811 
-272.687 94.4194 -240.38 70.0195 -43.3662 88.3131 -171.621 -21.4669 93.0662 -15.2335 1.18548 1.5642 51.9416 -2.5597 -0.393963 13.9026 -9.55701 3.26716 -173.302 58.3224 99.6118 -49.988 -19.5458 -4.74786 77.4293 -10.7475 -3.92557 17.9896 2.20772 6.65294 -0.880286 4.96917 -93.9885 16.7552 -3.77498 -7.41398 5.06952 -4.09679 -7.24181 -17.3052 -1.38083 -8.20027 2.70741 -1.38082 -8.20027 102.944 22.2562 -70.8947 77.4946 -32.017 89.7179 106.584 46.732 -123.707 94.4695 72.2299 61.0418 -82.9073 -13.8455 83.4303 -2.43535 8.37662 -71.6449 44.4921 -6.6804 -89.8548 26.4333 -8.07489 -34.5224 31.479 27.3526 38.8689 -35.7766 16.3985 -21.8569 
-266.875 94.1664 -235.643 70.5568 -44.1148 87.6025 -170.655 -19.5171 91.8648 -26.8867 3.79758 -0.22649 51.2794 -3.918 -1.08529 7.49273 -9.00327 -6.13707 -176.677 54.8888 100.256 -39.4392 -24.781 -2.4899 74.4586 -9.45599 -4.46672 21.0752 1.35435 6.48919 -0.96015 5.32481 -93.8039 16.0548 -3.81887 -7.05377 4.37129 -4.12489 -6.87992 -18.0211 -1.52991 -7.87019 1.99158 -1.52991 -7.8702 102.948 16.7554 -75.9036 74.7573 -24.9047 86.2285 103.025 44.8141 -120.968 98.248 71.594 57.0339 -89.8783 -20.7337 69.89 8.11524 4.29317 -59.7012 43.4262 -6.24548 -88.5097 23.5869 -7.81672 -37.0304 28.4684 25.1385 37.7828 -30.588 14.127 -19.1721 
-261.092 93.9433 -230.893 72.2316 -44.9456 87.6504 -168.806 -16.5862 91.1155 -41.4231 10.1672 -1.87861 50.4406 -5.40343 -0.528694 8.31475 -5.45583 -13.1708 -179.942 50.391 100.941 -31.3264 -23.231 0.46007 73.671 -8.36769 -2.2395 22.0269 1.23286 5.69729 -1.0447 5.85112 -93.5275 15.0186 -3.81961 -6.52729 3.33775 -4.10261 -6.35369 -19.0782 -1.68745 -7.36886 0.934404 -1.68745 -7.36885 102.55 8.93691 -80.6297 69.6158 -18.5313 79.8379 95.8464 43.1874 -115.112 112.269 69.7463 43.2901 -89.905 -21.8456 70.3333 8.2382 8.15928 -59.5108 37.4201 -6.74814 -88.3956 12.1576 -4.15906 -35.1061 24.0171 22.5795 36.687 -21.7188 11.8523 -17.1956 
-255.427 93.6183 -226.151 74.7018 -45.8299 88.4765 -165.838 -13.0339 91.2211 -56.3501 18.6877 -3.28782 50.4288 -5.99269 1.33961 14.1572 -6.16728 -4.78958 177.412 45.3951 101.482 -26.8107 -15.5721 3.003 73.0463 -7.42885 -0.775012 21.9337 1.28706 5.55203 -1.10641 6.55307 -93.1421 13.6409 -3.71916 -5.80626 1.96306 -3.97069 -5.63755 -20.4817 -1.80663 -6.65192 -0.469011 -1.80662 -6.65191 101.595 -0.938922 -84.2466 62.9646 -12.4989 70.2126 97.1499 37.8179 -113.909 107.755 70.5325 47.7674 -90.8923 -23.7458 69.0951 9.07411 12.3817 -57.2352 32.8569 -7.10869 -88.0882 12.5029 -2.98368 -27.0714 25.5433 21.4075 32.0582 -17.4351 11.0232 -14.7737 
-249.836 93.2146 -221.443 78.0241 -46.1947 89.6464 -162.174 -9.1037 91.7287 -71.4231 20.9599 -3.3783 48.1064 -7.50518 2.26324 11.593 -6.06744 -8.33433 175.14 41.0145 100.573 -27.266 -5.8497 4.78359 71.6575 -5.45827 2.38511 24.0104 0.659602 5.6556 -1.23339 7.32979 -92.684 12.1096 -3.71978 -4.94518 0.435166 -3.93357 -4.77705 -22.041 -2.0645 -5.83179 -2.02838 -2.06452 -5.83179 99.6726 -10.419 -89.3157 54.9993 -6.46004 59.1108 97.1252 33.1493 -111.683 114.132 74.0224 45.3284 -91.5358 -28.1462 69.6737 10.8984 15.9364 -54.5718 33.2144 -7.59504 -88.2556 11.7945 -2.70404 -25.183 29.7971 20.647 26.051 -16.0124 10.8606 -11.3793 
-244.43 92.6029 -216.588 80.4662 -46.7417 91.0865 -157.604 -3.82429 93.4253 -86.3923 14.6964 -1.92804 47.8101 -7.22362 1.87939 0.757577 -3.95388 -22.8738 174.15 35.9673 100.921 -24.8749 -15.3716 5.66398 62.0877 -2.55422 -13.6486 24.468 1.23688 1.46325 -1.298 7.95857 -92.3403 10.8692 -3.66549 -4.31163 -0.803142 -3.85153 -4.14635 -23.2991 -2.20223 -5.21192 -3.28642 -2.20222 -5.21192 96.7606 -19.8616 -95.2998 46.6248 -0.717373 47.2576 95.5192 28.7783 -107.342 125.325 69.1621 31.5817 -91.6181 -33.885 71.6666 11.6818 19.5823 -51.2884 34.5131 -8.08826 -88.1671 5.15171 -1.51464 -25.7768 31.9133 19.9131 22.1524 -13.0873 10.8495 -9.9068 
-239.471 92.2405 -211.919 80.2811 -48.5683 90.4515 -151.473 4.44178 93.3104 -99.7249 5.26643 0.0871782 48.0815 -5.71121 1.6806 -10.7092 -1.54808 -33.5374 173.078 37.3192 101.344 -34.4197 -18.1464 5.9182 62.9294 -3.02355 -15.2853 10.8124 5.49645 2.70236 -1.13929 8.31244 -91.9766 10.1836 -3.17161 -3.6562 -1.48823 -3.32935 -3.51321 -23.9959 -1.9274 -4.43913 -3.98323 -1.92739 -4.43913 93.3238 -28.5777 -100.536 38.1227 3.62467 33.9273 34.245 13.7533 -89.6302 139.709 19.3112 -11.7492 -90.0555 -36.1021 75.1634 6.88801 25.4403 -46.5522 32.6375 -7.34729 -85.6365 3.27941 -1.31479 -29.1389 33.5232 18.4855 16.2365 -10.4496 11.102 -5.17438 
-234.594 91.2086 -208.088 77.6826 -52.4968 88.0454 -142.917 15.3451 90.2854 -111.396 -0.0816 2.76735 48.1509 -4.37401 2.9132 -15.7019 0.135129 -38.0079 173.466 41.2655 102.089 -48.3013 -12.4902 3.76499 70.2453 -6.32644 -5.22285 19.5759 2.9295 1.29519 -0.716143 8.37246 -91.8119 10.0795 -2.25193 -3.40516 -1.59364 -2.39953 -3.30288 -24.0981 -1.12535 -3.92376 -4.08543 -1.12536 -3.92377 90.8938 -31.7986 -104.373 34.8491 4.19912 18.5633 -82.7935 -18.7585 -96.6213 -3.34093 -21.2775 -52.6512 -89.1555 -41.1143 77.9753 -1.13858 27.9995 -36.0345 35.9322 -6.13786 -84.9421 -1.37057 -0.363891 -32.0851 33.3603 18.6098 16.1439 -8.06544 11.1398 -4.58381 
